<svg width="36" height="36" viewBox="0 0 36 36" fill="none" xmlns="http://www.w3.org/2000/svg">
<rect x="0.5" y="0.5" width="35" height="35" rx="17.5" fill="white" style="fill:white;fill-opacity:1;"/>
<rect x="0.5" y="0.5" width="35" height="35" rx="17.5" stroke="#D6DDEB" style="stroke:#D6DDEB;stroke:color(display-p3 0.8392 0.8667 0.9216);stroke-opacity:1;"/>
<path d="M18.8337 21.3333H10.5003C10.2793 21.3333 10.0674 21.4211 9.91107 21.5774C9.75479 21.7337 9.66699 21.9457 9.66699 22.1667C9.66699 22.3877 9.75479 22.5996 9.91107 22.7559C10.0674 22.9122 10.2793 23 10.5003 23H18.8337C19.0547 23 19.2666 22.9122 19.4229 22.7559C19.5792 22.5996 19.667 22.3877 19.667 22.1667C19.667 21.9457 19.5792 21.7337 19.4229 21.5774C19.2666 21.4211 19.0547 21.3333 18.8337 21.3333ZM10.5003 14.6667H25.5003C25.7213 14.6667 25.9333 14.5789 26.0896 14.4226C26.2459 14.2663 26.3337 14.0543 26.3337 13.8333C26.3337 13.6123 26.2459 13.4004 26.0896 13.2441C25.9333 13.0878 25.7213 13 25.5003 13H10.5003C10.2793 13 10.0674 13.0878 9.91107 13.2441C9.75479 13.4004 9.66699 13.6123 9.66699 13.8333C9.66699 14.0543 9.75479 14.2663 9.91107 14.4226C10.0674 14.5789 10.2793 14.6667 10.5003 14.6667V14.6667ZM25.5003 17.1667H10.5003C10.2793 17.1667 10.0674 17.2545 9.91107 17.4107C9.75479 17.567 9.66699 17.779 9.66699 18C9.66699 18.221 9.75479 18.433 9.91107 18.5893C10.0674 18.7455 10.2793 18.8333 10.5003 18.8333H25.5003C25.7213 18.8333 25.9333 18.7455 26.0896 18.5893C26.2459 18.433 26.3337 18.221 26.3337 18C26.3337 17.779 26.2459 17.567 26.0896 17.4107C25.9333 17.2545 25.7213 17.1667 25.5003 17.1667Z" fill="#25324B" style="fill:#25324B;fill:color(display-p3 0.1451 0.1961 0.2941);fill-opacity:1;"/>
</svg>
