<svg width="40" height="40" viewBox="0 0 40 40" fill="none" xmlns="http://www.w3.org/2000/svg">
<path d="M35 22.0918C30.2341 24.0189 25.1407 25.0064 20 25.0002C14.695 25.0002 9.63333 23.9668 5 22.0918M20 20.0002H20.0167M26.6667 10.0002V6.66683C26.6667 5.78277 26.3155 4.93493 25.6904 4.30981C25.0652 3.68469 24.2174 3.3335 23.3333 3.3335H16.6667C15.7826 3.3335 14.9348 3.68469 14.3096 4.30981C13.6845 4.93493 13.3333 5.78277 13.3333 6.66683V10.0002H26.6667ZM8.33333 33.3335H31.6667C32.5507 33.3335 33.3986 32.9823 34.0237 32.3572C34.6488 31.7321 35 30.8842 35 30.0002V13.3335C35 12.4494 34.6488 11.6016 34.0237 10.9765C33.3986 10.3514 32.5507 10.0002 31.6667 10.0002H8.33333C7.44928 10.0002 6.60143 10.3514 5.97631 10.9765C5.35119 11.6016 5 12.4494 5 13.3335V30.0002C5 30.8842 5.35119 31.7321 5.97631 32.3572C6.60143 32.9823 7.44928 33.3335 8.33333 33.3335Z" stroke="#4640DE" style="stroke:#4640DE;stroke:color(display-p3 0.2745 0.2510 0.8706);stroke-opacity:1;" stroke-width="3" stroke-linecap="round" stroke-linejoin="round"/>
</svg>
