<svg width="40" height="40" viewBox="0 0 40 40" fill="none" xmlns="http://www.w3.org/2000/svg">
<path d="M18.3334 9.80333V32.0667C18.3329 32.7574 18.0887 33.4259 17.6437 33.9542C17.1987 34.4826 16.5815 34.8369 15.9009 34.9549C15.2202 35.0728 14.5198 34.9467 13.923 34.5989C13.3262 34.251 12.8713 33.7037 12.6384 33.0533L9.06011 22.8033M30.0001 21.6667C31.3262 21.6667 32.598 21.1399 33.5356 20.2022C34.4733 19.2645 35.0001 17.9927 35.0001 16.6667C35.0001 15.3406 34.4733 14.0688 33.5356 13.1311C32.598 12.1935 31.3262 11.6667 30.0001 11.6667V21.6667ZM9.06011 22.805C7.64547 22.2035 6.48208 21.1318 5.76683 19.7711C5.05157 18.4105 4.82837 16.8445 5.135 15.3382C5.44163 13.8319 6.25926 12.4778 7.44953 11.505C8.63979 10.5322 10.1296 10.0006 11.6668 10H14.7201C21.5534 10 27.4284 7.94333 30.0001 5V28.3333C27.4284 25.39 21.5551 23.3333 14.7201 23.3333H11.6668C10.7712 23.3346 9.88453 23.1549 9.06011 22.805Z" stroke="#4640DE" style="stroke:#4640DE;stroke:color(display-p3 0.2745 0.2510 0.8706);stroke-opacity:1;" stroke-width="3" stroke-linecap="round" stroke-linejoin="round"/>
</svg>
