<svg width="40" height="40" viewBox="0 0 40 40" fill="none" xmlns="http://www.w3.org/2000/svg">
<path d="M28.3333 15.0002V11.6668C28.3333 10.7828 27.9821 9.93493 27.357 9.30981C26.7319 8.68469 25.8841 8.3335 25 8.3335H8.33333C7.44928 8.3335 6.60143 8.68469 5.97631 9.30981C5.35119 9.93493 5 10.7828 5 11.6668V21.6668C5 22.5509 5.35119 23.3987 5.97631 24.0239C6.60143 24.649 7.44928 25.0002 8.33333 25.0002H11.6667M15 31.6668H31.6667C32.5507 31.6668 33.3986 31.3156 34.0237 30.6905C34.6488 30.0654 35 29.2176 35 28.3335V18.3335C35 17.4494 34.6488 16.6016 34.0237 15.9765C33.3986 15.3514 32.5507 15.0002 31.6667 15.0002H15C14.1159 15.0002 13.2681 15.3514 12.643 15.9765C12.0179 16.6016 11.6667 17.4494 11.6667 18.3335V28.3335C11.6667 29.2176 12.0179 30.0654 12.643 30.6905C13.2681 31.3156 14.1159 31.6668 15 31.6668ZM26.6667 23.3335C26.6667 24.2176 26.3155 25.0654 25.6904 25.6905C25.0652 26.3156 24.2174 26.6668 23.3333 26.6668C22.4493 26.6668 21.6014 26.3156 20.9763 25.6905C20.3512 25.0654 20 24.2176 20 23.3335C20 22.4494 20.3512 21.6016 20.9763 20.9765C21.6014 20.3514 22.4493 20.0002 23.3333 20.0002C24.2174 20.0002 25.0652 20.3514 25.6904 20.9765C26.3155 21.6016 26.6667 22.4494 26.6667 23.3335Z" stroke="#4640DE" style="stroke:#4640DE;stroke:color(display-p3 0.2745 0.2510 0.8706);stroke-opacity:1;" stroke-width="3" stroke-linecap="round" stroke-linejoin="round"/>
</svg>
