<svg width="40" height="40" viewBox="0 0 40 40" fill="none" xmlns="http://www.w3.org/2000/svg">
<path fill-rule="evenodd" clip-rule="evenodd" d="M20.0003 8.33333C19.1163 8.33333 18.2684 8.68452 17.6433 9.30964C17.0182 9.93476 16.667 10.7826 16.667 11.6667C16.667 12.5507 17.0182 13.3986 17.6433 14.0237C18.2684 14.6488 19.1163 15 20.0003 15C20.8844 15 21.7322 14.6488 22.3574 14.0237C22.9825 13.3986 23.3337 12.5507 23.3337 11.6667C23.3337 10.7826 22.9825 9.93476 22.3574 9.30964C21.7322 8.68452 20.8844 8.33333 20.0003 8.33333ZM15.2863 6.95262C16.5365 5.70238 18.2322 5 20.0003 5C21.7684 5 23.4641 5.70238 24.7144 6.95262C25.9646 8.20286 26.667 9.89856 26.667 11.6667C26.667 13.4348 25.9646 15.1305 24.7144 16.3807C23.4641 17.631 21.7684 18.3333 20.0003 18.3333C18.2322 18.3333 16.5365 17.631 15.2863 16.3807C14.036 15.1305 13.3337 13.4348 13.3337 11.6667C13.3337 9.89856 14.036 8.20286 15.2863 6.95262ZM8.33366 15C7.89163 15 7.46771 15.1756 7.15515 15.4882C6.84259 15.8007 6.66699 16.2246 6.66699 16.6667C6.66699 17.1087 6.84259 17.5326 7.15515 17.8452C7.46771 18.1577 7.89163 18.3333 8.33366 18.3333C8.77569 18.3333 9.19961 18.1577 9.51217 17.8452C9.82473 17.5326 10.0003 17.1087 10.0003 16.6667C10.0003 16.2246 9.82473 15.8007 9.51217 15.4882C9.19961 15.1756 8.77569 15 8.33366 15ZM4.79812 13.1311C5.73581 12.1935 7.00758 11.6667 8.33366 11.6667C9.65974 11.6667 10.9315 12.1935 11.8692 13.1311C12.8069 14.0688 13.3337 15.3406 13.3337 16.6667C13.3337 17.9927 12.8069 19.2645 11.8692 20.2022C10.9315 21.1399 9.65974 21.6667 8.33366 21.6667C7.00758 21.6667 5.73581 21.1399 4.79812 20.2022C3.86044 19.2645 3.33366 17.9927 3.33366 16.6667C3.33366 15.3406 3.86044 14.0688 4.79812 13.1311ZM31.667 15C31.225 15 30.801 15.1756 30.4885 15.4882C30.1759 15.8007 30.0003 16.2246 30.0003 16.6667C30.0003 17.1087 30.1759 17.5326 30.4885 17.8452C30.801 18.1577 31.225 18.3333 31.667 18.3333C32.109 18.3333 32.5329 18.1577 32.8455 17.8452C33.1581 17.5326 33.3337 17.1087 33.3337 16.6667C33.3337 16.2246 33.1581 15.8007 32.8455 15.4882C32.5329 15.1756 32.109 15 31.667 15ZM28.1315 13.1311C29.0691 12.1935 30.3409 11.6667 31.667 11.6667C32.9931 11.6667 34.2648 12.1935 35.2025 13.1311C36.1402 14.0688 36.667 15.3406 36.667 16.6667C36.667 17.9927 36.1402 19.2645 35.2025 20.2022C34.2648 21.1399 32.9931 21.6667 31.667 21.6667C30.3409 21.6667 29.0691 21.1399 28.1315 20.2022C27.1938 19.2645 26.667 17.9927 26.667 16.6667C26.667 15.3406 27.1938 14.0688 28.1315 13.1311ZM20.0003 23.3322C18.6674 23.3322 17.3651 23.7315 16.2613 24.4787C15.2208 25.1831 14.4017 26.1661 13.8964 27.3131L13.4946 31.6667H26.5061L26.1042 27.3131C25.5989 26.1661 24.7799 25.1831 23.7394 24.4787C22.6356 23.7315 21.3332 23.3322 20.0003 23.3322ZM30.0003 31.6667H35.0003V30.0001C35.0003 30.0001 35.0003 30.0002 35.0003 30.0001C35.0003 29.3074 34.7844 28.6318 34.3827 28.0675C33.981 27.5031 33.4135 27.0779 32.7589 26.851C32.1044 26.624 31.3955 26.6067 30.7306 26.8013C30.336 26.9168 29.9686 27.1035 29.6454 27.35C29.8773 28.1958 30.0003 29.085 30.0003 30V31.6667ZM28.2166 24.2961C27.517 23.2887 26.6343 22.4131 25.6079 21.7184C23.9525 20.5978 21.9994 19.9988 20.0003 19.9988C18.0013 19.9988 16.0481 20.5978 14.3927 21.7184C13.3664 22.4131 12.4837 23.2887 11.7841 24.2961C11.2932 23.9992 10.7634 23.7652 10.2064 23.6021C8.87672 23.2129 7.4588 23.2477 6.14977 23.7015C4.84074 24.1554 3.70563 25.0058 2.90224 26.1346C2.09885 27.2634 1.66709 28.6144 1.66699 29.9999V33.3333C1.66699 34.2538 2.41318 35 3.33366 35H36.667C37.5875 35 38.3337 34.2538 38.3337 33.3333V30C38.3336 28.6145 37.9018 27.2634 37.0984 26.1346C36.295 25.0058 35.1599 24.1554 33.8509 23.7015C32.5418 23.2477 31.1239 23.2129 29.7942 23.6021C29.2373 23.7652 28.7074 23.9992 28.2166 24.2961ZM10.3552 27.35C10.0321 27.1035 9.66464 26.9168 9.27004 26.8013C8.60519 26.6067 7.89623 26.624 7.24172 26.851C6.5872 27.0779 6.01965 27.5031 5.61795 28.0675C5.21628 28.6318 5.0004 29.3073 5.00033 30C5.00033 30 5.00033 30 5.00033 30V31.6667H10.0003V30C10.0003 29.085 10.1234 28.1958 10.3552 27.35Z" fill="#4640DE" style="fill:#4640DE;fill:color(display-p3 0.2745 0.2510 0.8706);fill-opacity:1;"/>
</svg>
