<svg width="40" height="40" viewBox="0 0 40 40" fill="none" xmlns="http://www.w3.org/2000/svg">
<path d="M16.25 28.3333L15 33.3333L13.3333 35H26.6667L25 33.3333L23.75 28.3333H16.25ZM5 21.6667H35H5ZM8.33333 28.3333H31.6667C32.5507 28.3333 33.3986 27.9821 34.0237 27.357C34.6488 26.7319 35 25.8841 35 25V8.33333C35 7.44928 34.6488 6.60143 34.0237 5.97631C33.3986 5.35119 32.5507 5 31.6667 5H8.33333C7.44928 5 6.60143 5.35119 5.97631 5.97631C5.35119 6.60143 5 7.44928 5 8.33333V25C5 25.8841 5.35119 26.7319 5.97631 27.357C6.60143 27.9821 7.44928 28.3333 8.33333 28.3333Z" stroke="#4640DE" style="stroke:#4640DE;stroke:color(display-p3 0.2745 0.2510 0.8706);stroke-opacity:1;" stroke-width="3" stroke-linecap="round" stroke-linejoin="round"/>
</svg>
